<svg xmlns="http://www.w3.org/2000/svg" width="1em" height="1em" viewBox="0 0 59 59" fill="none"><g><path d="M8.73 12.57C9.37 10.36 11.39 8.85 13.68 8.85H45.39C47.69 8.85 49.71 10.36 50.35 12.57L52.51 19.96C53.69 23.99 50.66 28.02 46.46 28.02C44.04 28.02 41.91 26.65 40.86 24.6C39.79 26.62 37.67 28.02 35.2 28.02C32.74 28.02 30.62 26.64 29.55 24.61C28.48 26.64 26.35 28.02 23.89 28.02C21.42 28.02 19.3 26.63 18.23 24.6C17.18 26.64 15.05 28.02 12.63 28.02C8.43 28.02 5.4 24 6.58 19.96L8.73 12.57ZM14.79 38.35H44.29V32.23C44.99 32.38 45.72 32.45 46.45 32.45C47.77 32.45 49.03 32.21 50.19 31.79V45.73C50.19 48.17 48.2 50.15 45.76 50.15H13.31C10.87 50.15 8.89 48.17 8.89 45.73V31.79C10.04 32.21 11.29 32.45 12.62 32.45C13.37 32.45 14.09 32.38 14.79 32.23V38.35Z" fill="currentColor"/></g></svg>
