<svg xmlns="http://www.w3.org/2000/svg" width="1em" height="1em" viewBox="0 0 65 65" fill="none"><g><path d="M32.5 34.12C35.64 34.12 38.19 31.58 38.19 28.44C38.19 25.3 35.64 22.75 32.5 22.75C29.36 22.75 26.81 25.3 26.81 28.44C26.81 31.58 29.36 34.12 32.5 34.12ZM32.5 39C27.12 39 22.75 43.37 22.75 48.75V52C22.75 53.8 24.2 55.25 26 55.25H39C40.8 55.25 42.25 53.8 42.25 52V48.75C42.25 43.37 37.88 39 32.5 39ZM19.5 32.5C19.5 29.81 17.32 27.62 14.62 27.62C11.93 27.62 9.75 29.81 9.75 32.5C9.75 35.19 11.93 37.38 14.62 37.38C17.32 37.38 19.5 35.19 19.5 32.5ZM55.25 32.5C55.25 29.81 53.07 27.62 50.38 27.62C47.68 27.62 45.5 29.81 45.5 32.5C45.5 35.19 47.68 37.38 50.38 37.38C53.07 37.38 55.25 35.19 55.25 32.5ZM14.62 40.62C10.14 40.62 6.5 44.26 6.5 48.75V52.11C6.5 53.84 7.9 55.25 9.64 55.25H18.56C18.12 54.25 17.88 53.16 17.88 52V47.12C17.88 45.26 18.23 43.47 18.87 41.82C17.63 41.06 16.18 40.62 14.62 40.62ZM46.45 55.25H55.37C57.1 55.25 58.51 53.85 58.51 52.11V48.75C58.51 44.26 54.87 40.62 50.39 40.62C48.83 40.62 47.38 41.06 46.14 41.82C46.78 43.47 47.14 45.26 47.14 47.12V52C47.14 53.16 46.89 54.25 46.45 55.25Z" fill="currentColor"/></g></svg>
